<svg version="1.1" id="Calque_1" xmlns="http://www.w3.org/2000/svg" xmlns:xlink="http://www.w3.org/1999/xlink" x="0px" y="0px" viewBox="0 0 250 60" style="enable-background:new 0 0 200 50" xml:space="preserve"><style type="text/css">.st0{fill:#F5593D;}
	.st1{font-family:&apos;MyriadPro-Regular&apos;;}
	.st2{font-size:24.3815px;}</style><g><g><g><g><g><path class="st0" d="M47.4,47.6c-1.8,0-3.6-0.7-4.9-1.9c-1.3-1.2-2-2.8-2-4.5c0-1.7,0.7-3.3,2-4.5c1.3-1.2,3-1.9,4.9-1.9
						c1.8,0,3.6,0.7,4.9,1.9c2.7,2.5,2.7,6.5,0,9C51,46.9,49.2,47.6,47.4,47.6z"/></g><g><path class="st0" d="M10,13.5c-1.8,0-3.6-0.7-4.9-1.9c-1.3-1.2-2-2.8-2-4.5c0-1.7,0.7-3.3,2-4.5c1.3-1.2,3-1.9,4.9-1.9
						c1.8,0,3.6,0.7,4.9,1.9c1.3,1.2,2,2.8,2,4.5c0,1.7-0.7,3.3-2,4.5C13.6,12.9,11.9,13.5,10,13.5z"/></g><path class="st0" d="M47.1,13.3c-1.8,0-3.6-0.7-4.9-1.9c-2.7-2.5-2.7-6.5,0-9c1.3-1.2,3-1.9,4.9-1.9c1.8,0,3.6,0.7,4.9,1.9
					c2.7,2.5,2.7,6.5,0,9C50.7,12.7,48.9,13.3,47.1,13.3z"/><g><path class="st0" d="M10.2,47.6c-1.8,0-3.6-0.7-4.9-1.9c-1.3-1.2-2-2.8-2-4.5c0-1.7,0.7-3.3,2-4.5c0.3-0.3,0.6-0.5,1-0.7
						c0.1-0.1,0.2-0.1,0.3-0.2c0.3-0.1,0.5-0.3,0.7-0.4c0.1-0.1,0.3-0.1,0.4-0.2C8,35.2,8.3,35.1,8.6,35c0.1,0,0.1,0,0.2,0
						c0,0,0.1,0,0.1,0l1.5-0.1c0.2,0,0.4,0,0.6,0.1l0.1,0c0.1,0,0.1,0,0.2,0l0.1,0l0.1,0h0.1c0.1,0,0.2,0,0.3,0c2.6,0,5.2-1,7.2-2.9
						c1.9-1.8,2.9-4.2,2.9-6.7l0-0.1l0-0.1c0-0.1,0-0.1,0-0.2c0-0.1,0-0.2,0-0.2l0-0.1c0-0.1,0-0.2,0-0.4l0.1-1.4c0,0,0-0.1,0-0.1
						l0-0.1c0.1-0.3,0.1-0.5,0.3-0.8c0.1-0.1,0.1-0.3,0.2-0.4c0.1-0.2,0.2-0.5,0.4-0.7c0.1-0.1,0.1-0.2,0.2-0.3
						c0.3-0.4,0.5-0.7,0.8-0.9c1.3-1.2,3-1.9,4.9-1.9c1.8,0,3.6,0.7,4.9,1.9c2.7,2.5,2.7,6.5,0,9c-0.3,0.3-0.6,0.5-1,0.7
						c-0.1,0.1-0.2,0.1-0.3,0.2c-0.2,0.1-0.5,0.3-0.7,0.4c-0.1,0.1-0.3,0.1-0.4,0.2c-0.3,0.1-0.5,0.2-0.8,0.2l-0.2,0
						c0,0-0.1,0-0.1,0l-1.5,0.1c-0.2,0-0.4,0-0.6-0.1l-0.1,0c0,0-0.1,0-0.2,0l-0.1,0l-0.1,0h-0.1c-0.1,0-0.2,0-0.3,0
						c-2.6,0-5.2,1-7.2,2.9c-1.9,1.8-2.9,4.3-2.9,6.7l0,0.1l0,0.1c0,0.1,0,0.1,0,0.2c0,0.1,0,0.2,0,0.2c0,0,0,0.1,0,0.2
						c0,0.1,0,0.2,0,0.3v0L17,42.4c0,0-0.1,0.2-0.1,0.2c-0.1,0.3-0.2,0.6-0.3,0.8c-0.1,0.1-0.1,0.2-0.2,0.4
						c-0.1,0.2-0.2,0.5-0.4,0.7c-0.1,0.1-0.1,0.2-0.2,0.3c-0.3,0.3-0.5,0.6-0.8,0.9C13.8,46.9,12,47.6,10.2,47.6L10.2,47.6z"/></g><path class="st0" d="M28.8,47.6c-1.8,0-3.6-0.7-4.9-1.9c-1.3-1.2-2-2.8-2-4.5c0-1.7,0.7-3.3,2-4.5c0.3-0.2,0.6-0.5,1-0.7
					c0.1-0.1,0.2-0.1,0.3-0.2c0.3-0.1,0.5-0.3,0.7-0.4c0.1-0.1,0.3-0.1,0.4-0.2c0.3-0.1,0.5-0.2,0.8-0.2c0,0,0.2-0.1,0.3-0.1
					l1.6-0.1c0.2,0,0.4,0,0.6,0.1l0.1,0c0.1,0,0.1,0,0.2,0c0,0,0.1,0,0.1,0l0,0l0.1,0c0.1,0,0.2,0,0.3,0c2.6,0,5.2-1,7.1-2.9
					c1.9-1.8,2.9-4.3,2.9-6.7l0-0.3l0,0c0,0,0,0,0,0c0-0.1,0-0.1,0-0.2l0-0.2c0-0.1,0-0.2,0-0.3l0.1-1.4c0,0,0.1-0.2,0.1-0.3
					c0.1-0.3,0.2-0.6,0.3-0.8c0-0.1,0.1-0.2,0.2-0.4c0.1-0.2,0.2-0.4,0.4-0.7l0,0c0.1-0.1,0.1-0.2,0.2-0.2c0.3-0.4,0.5-0.7,0.8-0.9
					c1.3-1.2,3-1.9,4.9-1.9c1.8,0,3.6,0.7,4.9,1.9c2.7,2.5,2.7,6.5,0,9c-0.3,0.2-0.6,0.5-1,0.7c-0.1,0-0.2,0.1-0.2,0.1l-0.1,0.1
					c-0.2,0.1-0.5,0.2-0.7,0.4c-0.1,0.1-0.3,0.1-0.4,0.2c-0.2,0.1-0.5,0.2-0.8,0.2c-0.1,0-0.1,0-0.2,0c0,0-0.1,0-0.1,0L47,30.5
					c-0.2,0-0.5,0-0.7-0.1c-0.1,0-0.1,0-0.2,0c0,0,0,0-0.1,0l-0.1,0c-0.1,0-0.2,0-0.3,0c-2.6,0-5.2,1-7.1,2.9
					c-1.9,1.8-2.9,4.3-2.9,6.7l0,0.1l0,0.1c0,0.1,0,0.1,0,0.2c0,0.1,0,0.1,0,0.2c0,0.1,0,0.1,0,0.2c0,0.1,0,0.2,0,0.3l-0.1,1.4
					c0,0-0.1,0.2-0.1,0.2c-0.1,0.3-0.2,0.6-0.3,0.8c0,0.1-0.1,0.2-0.2,0.3l0,0c-0.1,0.2-0.2,0.5-0.4,0.7c-0.1,0.1-0.1,0.2-0.2,0.3
					c-0.3,0.4-0.5,0.7-0.8,0.9C32.4,46.9,30.6,47.6,28.8,47.6L28.8,47.6z"/><path class="st0" d="M10.2,30.4c-1.8,0-3.6-0.7-4.9-1.9c-1.3-1.2-2-2.8-2-4.5c0-1.7,0.7-3.3,2-4.5c0.3-0.2,0.6-0.5,1-0.7
					c0.1-0.1,0.2-0.1,0.3-0.2c0.2-0.1,0.5-0.3,0.7-0.4C7.5,18.1,7.7,18,7.8,18c0.3-0.1,0.5-0.2,0.8-0.2l0.2,0c0,0,0.1,0,0.1,0
					l1.6-0.1c0.2,0,0.4,0,0.7,0.1l0,0c0.1,0,0.1,0,0.2,0c0,0,0,0,0.1,0l0.1,0l0.1,0c0.1,0,0.2,0,0.3,0c2.6,0,5.2-1,7.1-2.9
					c1.9-1.8,2.9-4.3,2.9-6.7l0-0.1l0-0.1c0-0.1,0-0.2,0-0.2c0-0.1,0-0.1,0-0.2l0-0.2c0-0.1,0-0.2,0-0.4l0.1-1.3l0,0v0
					c0,0,0.1-0.2,0.1-0.2c0.1-0.3,0.2-0.6,0.3-0.8c0-0.1,0.1-0.2,0.2-0.4c0.1-0.2,0.2-0.5,0.4-0.7l0,0c0.1-0.1,0.1-0.2,0.2-0.3
					c0.3-0.4,0.5-0.7,0.8-0.9c1.3-1.2,3-1.9,4.9-1.9c1.8,0,3.6,0.7,4.9,1.9c2.7,2.5,2.7,6.5,0,9c-0.3,0.2-0.6,0.5-1,0.7
					c-0.1,0.1-0.2,0.1-0.3,0.2l-0.1,0c-0.3,0.1-0.5,0.3-0.7,0.4c-0.1,0.1-0.3,0.1-0.4,0.2c-0.3,0.1-0.5,0.2-0.8,0.2
					c-0.1,0-0.1,0-0.2,0c0,0-0.1,0-0.1,0l-1.5,0.1c-0.2,0-0.4,0-0.6-0.1l-0.1,0c-0.1,0-0.1,0-0.2,0c0,0-0.1,0-0.1,0l-0.1,0l-0.1,0
					c-0.1,0-0.2,0-0.3,0c-2.6,0-5.2,1-7.1,2.9c-1.9,1.8-2.9,4.3-2.9,6.7l0,0.1l0,0.1c0,0.1,0,0.1,0,0.2c0,0.1,0,0.1,0,0.2
					c0,0.1,0,0.1,0,0.2c0,0.1,0,0.2,0,0.3L17,25.2c0,0,0,0.1,0,0.1l0,0.1c-0.1,0.3-0.2,0.6-0.2,0.8c0,0.1-0.1,0.2-0.2,0.4
					c-0.1,0.2-0.2,0.5-0.4,0.7c-0.1,0.1-0.1,0.2-0.2,0.3c-0.3,0.4-0.5,0.7-0.8,0.9C13.8,29.7,12,30.4,10.2,30.4L10.2,30.4z"/></g></g></g></g><text transform="matrix(1.0769 0 0 1 73.5947 31.5938)"><tspan x="0" y="0" class="st1 st2">Zokas</tspan><tspan x="59.7" y="0" class="st0 st1 st2">TECH</tspan></text></svg>